<svg width="32" height="32" viewBox="0 0 32 32" fill="none" xmlns="http://www.w3.org/2000/svg">
<path d="M32 15.8814C32 7.10942 24.8375 0 16 0C7.1625 0 0 7.10942 0 15.8814C0 23.8097 5.85 30.3794 13.5 31.5705V20.4721H9.4375V15.8814H13.5V12.3825C13.5 8.40289 15.8875 6.20368 19.5438 6.20368C21.2938 6.20368 23.125 6.51387 23.125 6.51387V10.4222H21.1063C19.1188 10.4222 18.5 11.6474 18.5 12.9037V15.8814H22.9375L22.2281 20.4721H18.5V31.5705C26.15 30.3794 32 23.8097 32 15.8814Z" fill="#1877F2"/>
<path d="M22.2281 20.4721L22.9375 15.8814H18.5V12.9036C18.5 11.6473 19.1188 10.4221 21.1063 10.4221H23.125V6.5138C23.125 6.5138 21.2938 6.20361 19.5438 6.20361C15.8875 6.20361 13.5 8.40282 13.5 12.3825V15.8814H9.4375V20.4721H13.5V31.5705C14.3156 31.6976 15.15 31.7628 16 31.7628C16.85 31.7628 17.6844 31.6976 18.5 31.5705V20.4721H22.2281Z" fill="white"/>
</svg>
