<?xml version="1.0" encoding="UTF-8"?>
<svg id="_レイヤー_1" data-name="レイヤー 1" xmlns="http://www.w3.org/2000/svg" version="1.1" viewBox="0 0 800 800">
  <defs>
    <style>
      .cls-1 {
        fill: #bf0000;
      }

      .cls-1, .cls-2 {
        stroke-width: 0px;
      }

      .cls-2 {
        fill: none;
      }
    </style>
  </defs>
  <path class="cls-2" d="M0,0h800v800H0V0Z"/>
  <g id="Shopicon">
    <path class="cls-1" d="M140.7,450l259.3,250,259.3-250c45-33.9,74.1-87.6,74.1-148.1,0-102.2-83-185.2-185.2-185.2s-114.5,29.3-148.1,74.3c-33.7-45-87.6-74.3-148.1-74.3-102.2,0-185.2,83-185.2,185.2s29.1,114.3,74.1,148.1ZM251.8,183.3c37.6,0,72.2,17.3,94.8,47.5l53.4,71.3,53.4-71.2c22.6-30.2,57.2-47.6,94.8-47.6,65.4,0,118.5,53.2,118.5,118.5s-17.3,72.2-47.5,94.9l-3.2,2.4-2.9,2.8-213,205.4-213-205.4-2.9-2.8-3.2-2.4c-30.2-22.7-47.5-57.3-47.5-94.9,0-65.4,53.2-118.5,118.5-118.5Z"/>
  </g>
</svg>