<svg width="668" height="584" viewBox="0 0 668 584" fill="none" xmlns="http://www.w3.org/2000/svg">
<path d="M74.7 334L334 584L593.3 334C638.3 300.1 667.4 246.4 667.4 185.9C667.4 83.7 584.4 0.700012 482.2 0.700012C380 0.700012 367.7 30 334.1 75C300.4 30 246.5 0.700012 186 0.700012C83.8 0.700012 0.800003 83.7 0.800003 185.9C0.800003 288.1 29.9 300.2 74.9 334H74.7ZM185.8 67.3C223.4 67.3 258 84.6 280.6 114.8L334 186.1L387.4 114.9C410 84.7 444.6 67.3 482.2 67.3C547.6 67.3 600.7 120.5 600.7 185.8C600.7 251.1 583.4 258 553.2 280.7L550 283.1L547.1 285.9L334.1 491.3L121.1 285.9L118.2 283.1L115 280.7C84.8 258 67.5 223.4 67.5 185.8C67.5 120.4 120.7 67.3 186 67.3H185.8Z" fill="#BF0000"/>
</svg>
