<svg width="40" height="40" viewBox="0 0 40 40" fill="none" xmlns="http://www.w3.org/2000/svg">
<path d="M17.1429 18V12L26.6667 20L17.1429 28V22H0V18H17.1429ZM2.77714 26H6.82286C8.15247 29.4382 10.5785 32.2844 13.6859 34.0519C16.7934 35.8194 20.3892 36.3982 23.8582 35.6895C27.3272 34.9807 30.4539 33.0284 32.7035 30.1665C34.953 27.3045 36.1856 23.7108 36.1905 20C36.1924 16.2853 34.9634 12.6857 32.7141 9.81844C30.4648 6.95122 27.3355 4.99511 23.8628 4.28563C20.3901 3.57614 16.7906 4.15748 13.6815 5.92995C10.5724 7.70243 8.14756 10.5556 6.82286 14H2.77714C5.20381 5.886 12.4229 0 20.9524 0C31.4724 0 40 8.954 40 20C40 31.046 31.4724 40 20.9524 40C12.4229 40 5.20381 34.114 2.77714 26Z" fill="#7F5539"/>
</svg>
