<svg width="40" height="40" viewBox="0 0 40 40" fill="none" xmlns="http://www.w3.org/2000/svg">
<circle cx="20" cy="20" r="20" fill="#FF8877"/>
<path d="M9.14 18.784H13.616V20.116H9.14V18.784ZM2.636 16H8.036V17.176H2.636V16ZM2.516 20.776H8.024V21.988H2.516V20.776ZM2.48 18.676H8.132V19.864H2.48V18.676ZM11.084 19.36H12.476V26.02H11.084V19.36ZM4.64 14.908H6.044V16.528H4.64V14.908ZM4.64 19.792H6.044V26.068H4.64V19.792ZM8.492 15.76L10.172 16.228C10.16 16.348 10.076 16.408 9.86 16.444V19.972C9.86 21.76 9.632 24.412 8 26.104C7.82 25.792 7.292 25.3 6.968 25.12C8.36 23.644 8.492 21.592 8.492 19.948V15.76ZM12.416 14.932L13.568 15.976C12.344 16.528 10.712 16.936 9.308 17.2C9.236 16.888 9.032 16.384 8.864 16.108C10.148 15.82 11.564 15.388 12.416 14.932ZM5.936 22.036C6.308 22.264 7.46 23.164 7.748 23.404L6.92 24.436C6.524 23.956 5.612 23.056 5.168 22.66L5.936 22.036ZM3.236 17.356L4.34 17.092C4.556 17.524 4.724 18.112 4.784 18.508L3.608 18.82C3.584 18.424 3.428 17.812 3.236 17.356ZM6.224 17.068L7.496 17.308C7.268 17.86 7.064 18.376 6.884 18.748L5.744 18.508C5.912 18.1 6.116 17.488 6.224 17.068ZM4.652 21.484L5.672 21.856C5.084 23.176 4.088 24.556 3.128 25.336C2.9 25.024 2.48 24.544 2.18 24.316C3.128 23.704 4.124 22.54 4.652 21.484ZM14.732 15.724H25.28V17.02H14.732V15.724ZM19.196 14.812H20.684V16.492H19.196V14.812ZM15.128 17.968H24.356V19.204H16.496V26.056H15.128V17.968ZM23.612 17.968H25.004V24.52C25.004 25.216 24.86 25.624 24.392 25.84C23.912 26.056 23.24 26.092 22.292 26.092C22.232 25.708 22.016 25.072 21.824 24.712C22.448 24.748 23.144 24.748 23.348 24.736C23.552 24.736 23.612 24.676 23.612 24.508V17.968ZM18.152 19.048H19.424C19.328 20.488 18.92 21.304 17.012 21.736C16.904 21.436 16.604 20.968 16.352 20.74C17.84 20.476 18.092 20.008 18.152 19.048ZM20.372 19.048H21.62V19.96C21.62 20.224 21.644 20.248 21.86 20.248C21.968 20.248 22.364 20.248 22.484 20.248C22.676 20.248 22.724 20.164 22.76 19.576C22.988 19.744 23.492 19.912 23.816 19.984C23.696 21.004 23.384 21.28 22.64 21.28C22.424 21.28 21.872 21.28 21.668 21.28C20.6 21.28 20.372 20.968 20.372 19.984V19.048ZM17.672 21.736H18.944V25.516H17.672V21.736ZM18.464 21.736H22.412V24.868H18.464V23.812H21.116V22.792H18.464V21.736ZM16.88 16.996L18.308 16.756C18.524 17.14 18.752 17.656 18.848 18.004L17.36 18.304C17.288 17.956 17.072 17.404 16.88 16.996ZM21.572 16.744L23.168 16.984C22.88 17.512 22.628 17.944 22.412 18.268L20.984 18.028C21.188 17.656 21.44 17.116 21.572 16.744ZM29.876 16.66V18.28H34.1V16.66H29.876ZM28.484 15.292H35.576V19.648H28.484V15.292ZM26.84 20.656H31.424V26.008H29.984V22.024H28.196V26.08H26.84V20.656ZM32.444 20.656H37.196V26.02H35.744V22.024H33.824V26.08H32.444V20.656ZM27.44 24.1H30.584V25.48H27.44V24.1ZM33.104 24.1H36.464V25.48H33.104V24.1Z" fill="white"/>
</svg>
