<svg width="19" height="19" viewBox="0 0 19 19" fill="none" xmlns="http://www.w3.org/2000/svg">
<path d="M15.125 7.57461C15.125 9.18805 14.6012 10.6785 13.7188 11.8877L18.1695 16.3413C18.609 16.7807 18.609 17.4943 18.1695 17.9336C17.7301 18.373 17.0164 18.373 16.577 17.9336L12.1262 13.48C10.9168 14.3658 9.42617 14.886 7.8125 14.886C3.77305 14.886 0.5 11.6135 0.5 7.57461C0.5 3.53575 3.77305 0.263184 7.8125 0.263184C11.852 0.263184 15.125 3.53575 15.125 7.57461ZM7.8125 12.6364C8.47732 12.6364 9.13562 12.5054 9.74984 12.2511C10.364 11.9967 10.9221 11.6238 11.3922 11.1538C11.8623 10.6838 12.2352 10.1258 12.4896 9.51166C12.7441 8.89754 12.875 8.23933 12.875 7.57461C12.875 6.90989 12.7441 6.25168 12.4896 5.63756C12.2352 5.02344 11.8623 4.46544 11.3922 3.99541C10.9221 3.52538 10.364 3.15253 9.74984 2.89816C9.13562 2.64378 8.47732 2.51285 7.8125 2.51285C7.14768 2.51285 6.48938 2.64378 5.87516 2.89816C5.26095 3.15253 4.70287 3.52538 4.23277 3.99541C3.76268 4.46544 3.38977 5.02344 3.13536 5.63756C2.88095 6.25168 2.75 6.90989 2.75 7.57461C2.75 8.23933 2.88095 8.89754 3.13536 9.51166C3.38977 10.1258 3.76268 10.6838 4.23277 11.1538C4.70287 11.6238 5.26095 11.9967 5.87516 12.2511C6.48938 12.5054 7.14768 12.6364 7.8125 12.6364Z" fill="#7F5539"/>
</svg>
