<svg width="80" height="68" viewBox="0 0 80 68" fill="none" xmlns="http://www.w3.org/2000/svg">
<path d="M53.6151 35.9336C52.1497 35.9336 51.0733 35.5844 50.386 34.886C49.6987 34.1877 49.355 33.0298 49.355 31.4125C49.355 30.126 49.5819 28.7415 50.0358 27.259C50.5027 25.7764 51.2419 24.5083 52.2534 23.4546C53.2779 22.3887 54.5747 21.8557 56.144 21.8557C57.1165 21.8557 57.9011 22.0578 58.4977 22.4622C59.0943 22.8665 59.3925 23.4852 59.3925 24.3184C59.3925 24.8452 59.2823 25.2618 59.0618 25.5681C58.8414 25.8622 58.4977 26.0092 58.0308 26.0092C57.564 26.0092 57.1943 25.8499 56.922 25.5314C57.1555 25.4211 57.363 25.2006 57.5445 24.8698C57.7261 24.5389 57.8169 24.1959 57.8169 23.8405C57.8169 23.5097 57.7196 23.2402 57.525 23.0319C57.3435 22.8236 57.0452 22.7195 56.6303 22.7195C55.9429 22.7195 55.288 23.1666 54.6655 24.0611C54.0431 24.9433 53.5373 26.0582 53.1482 27.406C52.7721 28.7538 52.5841 30.0525 52.5841 31.3022C52.5841 32.2334 52.7527 32.944 53.0898 33.4341C53.4271 33.9242 54.0365 34.1693 54.9184 34.1693C55.6836 34.1693 56.3903 34.01 57.0387 33.6914C57.6872 33.3729 58.2448 32.9195 58.7117 32.3314L59.1591 32.5152C58.8349 33.2871 58.3551 33.9304 57.7196 34.445C57.0841 34.9596 56.4033 35.3394 55.6771 35.5844C54.9508 35.8172 54.2635 35.9336 53.6151 35.9336Z" fill="#7F5539"/>
<path d="M60.7946 35.7132C60.3666 35.7132 60.0035 35.5723 59.7052 35.2906C59.407 35.0087 59.2578 34.6657 59.2578 34.2613C59.2578 33.857 59.407 33.5139 59.7052 33.2321C60.0035 32.9381 60.3666 32.7911 60.7946 32.7911C61.2225 32.7911 61.5857 32.9381 61.8839 33.2321C62.1951 33.5139 62.3508 33.857 62.3508 34.2613C62.3508 34.6657 62.1951 35.0087 61.8839 35.2906C61.5857 35.5723 61.2225 35.7132 60.7946 35.7132Z" fill="#7F5539"/>
<path d="M43.7123 51.153C42.2468 51.153 41.1705 50.8038 40.4832 50.1054C39.7958 49.407 39.4521 48.2492 39.4521 46.6319C39.4521 45.3454 39.6792 43.9609 40.133 42.4783C40.5999 40.9958 41.3391 39.7277 42.3506 38.674C43.3751 37.6081 44.6719 37.0751 46.2411 37.0751C47.2137 37.0751 47.9984 37.2773 48.5949 37.6816C49.1914 38.0859 49.4897 38.7046 49.4897 39.5378C49.4897 40.0647 49.3795 40.4812 49.159 40.7875C48.9385 41.0816 48.5949 41.2286 48.128 41.2286C47.6611 41.2286 47.2916 41.0693 47.0193 40.7507C47.2526 40.6404 47.4602 40.4199 47.6417 40.0891C47.8233 39.7583 47.914 39.4153 47.914 39.06C47.914 38.7291 47.8168 38.4596 47.6223 38.2513C47.4407 38.043 47.1424 37.9389 46.7274 37.9389C46.0401 37.9389 45.3852 38.3861 44.7628 39.2805C44.1402 40.1627 43.6345 41.2776 43.2455 42.6253C42.8694 43.9731 42.6813 45.2718 42.6813 46.5216C42.6813 47.4528 42.8499 48.1634 43.1871 48.6536C43.5242 49.1436 44.1338 49.3887 45.0156 49.3887C45.7807 49.3887 46.4875 49.2294 47.1359 48.9108C47.7843 48.5922 48.342 48.1389 48.8089 47.5508L49.2562 47.7346C48.9321 48.5065 48.4522 49.1498 47.8168 49.6643C47.1813 50.1789 46.5005 50.5587 45.7743 50.8038C45.048 51.0366 44.3607 51.153 43.7123 51.153Z" fill="#7F5539"/>
<path d="M50.8917 50.9325C50.4638 50.9325 50.1007 50.7916 49.8024 50.5098C49.5041 50.228 49.355 49.885 49.355 49.4806C49.355 49.0763 49.5041 48.7333 49.8024 48.4514C50.1007 48.1573 50.4638 48.0103 50.8917 48.0103C51.3197 48.0103 51.6828 48.1573 51.9811 48.4514C52.2923 48.7333 52.448 49.0763 52.448 49.4806C52.448 49.885 52.2923 50.228 51.9811 50.5098C51.6828 50.7916 51.3197 50.9325 50.8917 50.9325Z" fill="#7F5539"/>
<path d="M34.7747 67.3061C33.9966 67.3061 33.2056 66.9814 32.4015 66.332L32.2459 67.0671H29.4447L32.0903 55.3784L34.9693 55.0108L32.635 65.3212C32.9981 65.5662 33.3677 65.6888 33.7438 65.6888C34.483 65.6888 35.1314 65.2844 35.689 64.4758C36.2596 63.6671 36.7005 62.638 37.0118 61.3882C37.323 60.1385 37.4786 58.8764 37.4786 57.6022C37.4786 56.4015 37.2257 55.5255 36.72 54.9741C36.2272 54.4105 35.5333 54.1287 34.6386 54.1287C33.6659 54.1287 32.7906 54.3124 32.0125 54.68C31.2474 55.0354 30.6443 55.5499 30.2034 56.2238C29.7625 56.8977 29.542 57.6879 29.542 58.5946C29.542 59.048 29.5874 59.3665 29.6781 59.5503C29.7689 59.7219 29.8143 59.8199 29.8143 59.8444C29.14 59.8444 28.6212 59.7096 28.2581 59.44C27.908 59.1705 27.7329 58.7356 27.7329 58.1352C27.7329 57.302 28.0636 56.5118 28.725 55.7644C29.3864 55.017 30.2683 54.4166 31.3705 53.9632C32.4858 53.5099 33.6854 53.2833 34.9693 53.2833C36.7459 53.2833 38.0557 53.7795 38.8986 54.7719C39.7416 55.7644 40.1631 57.0324 40.1631 58.5763C40.1631 59.973 39.9102 61.3514 39.4044 62.7115C38.9116 64.0592 38.2502 65.1619 37.4203 66.0196C36.5903 66.8772 35.7084 67.3061 34.7747 67.3061Z" fill="#7F5539"/>
<path d="M43.3551 67.1407C42.3954 67.1407 41.6368 66.9079 41.0792 66.4422C40.5215 65.9767 40.2427 65.2415 40.2427 64.2368C40.2427 63.4037 40.4242 62.4786 40.7873 61.4617C41.1504 60.4447 41.734 59.5687 42.5381 58.8336C43.3421 58.0862 44.3536 57.7125 45.5726 57.7125C47.2326 57.7125 48.0626 58.6926 48.0626 60.6531V60.6714C48.1015 60.6837 48.1728 60.6898 48.2766 60.6898C48.7045 60.6898 49.1973 60.5856 49.7549 60.3774C50.3126 60.1568 50.8184 59.8934 51.2723 59.5871L51.4474 60.0833C51.0713 60.4631 50.5785 60.7878 49.9689 61.0574C49.3724 61.3147 48.7175 61.4984 48.0042 61.6087C47.9005 62.7236 47.6346 63.6978 47.2067 64.5309C46.7787 65.364 46.2276 66.0073 45.5532 66.4606C44.8789 66.914 44.1461 67.1407 43.3551 67.1407ZM44.1332 65.4866C44.4444 65.4866 44.7557 65.3212 45.0669 64.9904C45.3781 64.6473 45.6505 64.1879 45.8839 63.612C46.1174 63.0239 46.286 62.3745 46.3897 61.6638C46.0395 61.5903 45.8645 61.333 45.8645 60.892C45.8645 60.3896 46.0655 60.0588 46.4675 59.8995C46.4416 59.4952 46.3767 59.2195 46.273 59.0725C46.1692 58.9132 45.9877 58.8336 45.7283 58.8336C45.3003 58.8336 44.8854 59.1276 44.4833 59.7157C44.0813 60.3039 43.7571 61.0083 43.5107 61.8292C43.2643 62.6501 43.1411 63.3731 43.1411 63.9979C43.1411 64.586 43.2124 64.9842 43.3551 65.1926C43.4977 65.3886 43.7571 65.4866 44.1332 65.4866Z" fill="#7F5539"/>
<path d="M56.0858 67.1773C55.2947 67.1773 54.7111 66.9813 54.335 66.5892C53.9719 66.1849 53.7904 65.6887 53.7904 65.1006C53.7904 64.8432 53.8228 64.5553 53.8876 64.2367C53.9525 63.9059 54.0173 63.5874 54.0821 63.2811C54.16 62.9747 54.2118 62.7787 54.2378 62.693C54.3415 62.2641 54.4388 61.8414 54.5295 61.4248C54.6203 61.0082 54.6657 60.6713 54.6657 60.414C54.6657 59.7891 54.4323 59.4767 53.9655 59.4767C53.6282 59.4767 53.33 59.636 53.0706 59.9546C52.8113 60.2608 52.6037 60.6652 52.4481 61.1675L51.1254 67.067H48.3242L50.3862 57.8778H53.1873L52.9734 58.8335C53.6218 58.1473 54.3804 57.8043 55.2493 57.8043C55.9107 57.8043 56.4359 57.9758 56.825 58.3189C57.214 58.662 57.4086 59.1826 57.4086 59.881C57.4086 60.2364 57.3632 60.6346 57.2724 61.0756C57.1816 61.5045 57.0519 62.0313 56.8833 62.6562C56.7796 63.036 56.6823 63.4097 56.5915 63.7773C56.5137 64.1326 56.4748 64.4144 56.4748 64.6227C56.4748 64.8677 56.5331 65.0576 56.6499 65.1925C56.7666 65.3272 56.9676 65.3946 57.2529 65.3946C57.642 65.3946 57.9532 65.266 58.1866 65.0087C58.4201 64.7391 58.6535 64.3286 58.8869 63.7773H59.7039C59.2241 65.125 58.6664 66.0317 58.031 66.4973C57.4086 66.9506 56.7602 67.1773 56.0858 67.1773Z" fill="#7F5539"/>
<path d="M60.8105 67.1774C60.1879 67.1774 59.6822 66.9936 59.2932 66.626C58.9171 66.2584 58.729 65.707 58.729 64.9719C58.729 64.6656 58.7809 64.2674 58.8847 63.7773L60.2074 57.8778H63.0086L61.608 64.1265C61.5691 64.3103 61.5497 64.4818 61.5497 64.6411C61.5497 65.1434 61.7442 65.3946 62.1332 65.3946C62.4963 65.3946 62.8075 65.2537 63.067 64.9719C63.3263 64.6779 63.5338 64.2797 63.6894 63.7773L65.0122 57.8778H67.8133L66.4128 64.1265C66.3609 64.3103 66.335 64.5063 66.335 64.7146C66.335 64.9596 66.3933 65.1373 66.5101 65.2476C66.6397 65.3456 66.8472 65.3946 67.1325 65.3946C67.4956 65.3946 67.8069 65.2476 68.0662 64.9535C68.3386 64.6595 68.5526 64.2674 68.7082 63.7773H69.5252C69.0453 65.1006 68.4488 66.0011 67.7355 66.479C67.0353 66.9445 66.3285 67.1774 65.6152 67.1774C65.0576 67.1774 64.6102 67.0303 64.273 66.7363C63.9488 66.4422 63.7542 66.0073 63.6894 65.4314C63.2485 66.1053 62.7817 66.5647 62.2888 66.8098C61.809 67.0548 61.3162 67.1774 60.8105 67.1774Z" fill="#7F5539"/>
<path d="M70.6318 67.1774C70.0092 67.1774 69.5035 66.9936 69.1145 66.626C68.7384 66.2585 68.5503 65.7071 68.5503 64.9719C68.5503 64.6656 68.6022 64.2674 68.706 63.7773L69.8731 58.6129H69.2312L69.3868 57.8778H70.0287L70.6123 55.3416L73.4912 54.974L72.8295 57.8778H73.9969L73.8415 58.6129H72.6742L71.4296 64.1265C71.3771 64.3103 71.3516 64.5064 71.3516 64.7146C71.3516 64.9597 71.4097 65.1373 71.5268 65.2476C71.6565 65.3456 71.8636 65.3946 72.1487 65.3946C72.5253 65.3946 72.8749 65.2476 73.1997 64.9535C73.5238 64.6472 73.7572 64.2552 73.8997 63.7773H74.7167C74.2373 65.1006 73.621 66.0011 72.8685 66.479C72.1168 66.9445 71.3707 67.1774 70.6318 67.1774Z" fill="#7F5539"/>
<path d="M76.1093 67.1775C75.4867 67.1775 74.9619 67.0672 74.5335 66.8467C74.1059 66.6138 73.7882 66.3198 73.5804 65.9644C73.3733 65.5969 73.269 65.217 73.269 64.825C73.269 64.4207 73.3733 64.0715 73.5804 63.7774C73.7754 63.4711 74.0151 63.2506 74.3002 63.1158C74.8059 62.2581 75.247 61.3944 75.6228 60.5244C75.9994 59.6423 76.3561 58.6927 76.693 57.6758L79.5723 57.3082C79.6368 58.8765 79.7468 60.5735 79.9028 62.399C79.9673 63.1342 79.9999 63.6671 79.9999 63.9979C79.9999 64.7453 79.7992 65.358 79.3971 65.8358C78.995 66.3136 78.4958 66.6567 77.8993 66.865C77.3157 67.0733 76.7192 67.1775 76.1093 67.1775ZM75.4867 65.7255C75.9668 65.7255 76.3689 65.5908 76.693 65.3212C77.0171 65.0516 77.1795 64.6167 77.1795 64.0163C77.1795 63.6487 77.1405 63.1342 77.0625 62.4726C76.9327 61.0757 76.8483 60.1385 76.81 59.6606C76.4987 60.6286 75.9732 61.7864 75.2342 63.1341C75.5321 63.2812 75.6817 63.4956 75.6817 63.7774C75.6817 64.0102 75.5973 64.2185 75.4285 64.4023C75.2732 64.5861 75.0718 64.678 74.8257 64.678C74.5534 64.678 74.3782 64.5983 74.3002 64.4391C74.3002 64.8801 74.391 65.2048 74.5725 65.4131C74.7668 65.6214 75.0718 65.7255 75.4867 65.7255Z" fill="#7F5539"/>
<path d="M46.2769 23.6546C42.6516 21.6212 38.3152 21.0244 34.2217 21.9954C30.1282 22.9665 26.6129 25.4258 24.4491 28.8324C22.2852 32.2391 21.6501 36.314 22.6835 40.1607C23.7168 44.0074 26.3339 47.3107 29.9592 49.3441L38.118 36.4993L46.2769 23.6546Z" fill="#E8C2CA"/>
<path d="M25.3826 56.3612C22.5847 54.807 20.1419 52.7477 18.1947 50.3023C16.2477 47.8568 14.8348 45.0734 14.0376 42.1125C13.2404 39.1517 13.0747 36.0718 13.5499 33.0504C14.0252 30.029 15.132 27.1259 16.8066 24.5083C18.4812 21.8908 20.6906 19.6105 23.3073 17.7989C25.924 15.9873 28.8963 14.6802 32.053 13.953C35.2097 13.2258 38.4884 13.0928 41.7 13.5617C44.9117 14.0306 47.9928 15.0922 50.7659 16.6851L46.4701 23.2887C44.6243 22.2284 42.5734 21.5218 40.4355 21.2097C38.2977 20.8976 36.1153 20.9861 34.0142 21.4702C31.9129 21.9542 29.9344 22.8242 28.1926 24.0301C26.4508 25.236 24.9802 26.7538 23.8655 28.4962C22.7508 30.2385 22.0141 32.171 21.6978 34.1821C21.3814 36.1933 21.4917 38.2433 22.0224 40.2142C22.553 42.1851 23.4934 44.0378 24.7895 45.6656C26.0856 47.2934 27.7117 48.6641 29.574 49.6987L25.3826 56.3612Z" fill="#D1B3C4"/>
<path d="M18.6 67.3267C9.91956 62.4555 3.65041 54.5469 1.16829 45.3367C-1.31384 36.1265 0.193837 26.3672 5.36044 18.2004C10.5271 10.0337 18.9305 4.12664 28.7266 1.77566C38.5227 -0.575318 48.9113 0.821802 57.6125 5.66043L51.1124 15.9822C45.3206 12.7614 38.4055 11.8314 31.8849 13.3963C25.3642 14.9612 19.7705 18.8932 16.3314 24.3293C12.8923 29.7654 11.8888 36.2616 13.541 42.3923C15.1932 48.5229 19.3662 53.7871 25.1441 57.0298L18.6 67.3267Z" fill="#B392AC"/>
</svg>
