<?xml version="1.0" encoding="UTF-8"?>
<svg id="_レイヤー_1" data-name="レイヤー 1" xmlns="http://www.w3.org/2000/svg" version="1.1" viewBox="0 0 200 200">
  <defs>
    <style>
      .cls-1 {
        fill: #8bc343;
      }

      .cls-1, .cls-2, .cls-3 {
        stroke-width: 0px;
      }

      .cls-2 {
        fill: #7d5439;
      }

      .cls-3 {
        fill: #a873af;
      }
    </style>
  </defs>
  <path class="cls-2" d="M98.4,45.6c-27.6,0-50,22.4-50,50,0,27.6,22.4,50,50,50,27.6,0,50-22.4,50-50,0-27.6-22.4-50-50-50ZM131.8,86.3c1.3,0,2.3,1.1,2.3,2.3s-1.1,2.3-2.3,2.3-2.3-1.1-2.3-2.3c0-1.3,1.1-2.3,2.3-2.3ZM126.2,67.8c1.7,0,3.1,1.4,3.1,3.1s-1.4,3.1-3.1,3.1-3.1-1.4-3.1-3.1c0-1.7,1.4-3.1,3.1-3.1ZM107.9,59.1c1,0,1.9.8,1.9,1.9s-.8,1.9-1.9,1.9-1.9-.8-1.9-1.9.8-1.9,1.9-1.9ZM117.6,90.4c0,10-8.7,18-19.4,18s-19.4-8.1-19.4-18,8.7-18,19.4-18c10.7,0,19.4,8.1,19.4,18ZM118.2,115.4c0,1.3-1.1,2.3-2.3,2.3s-2.3-1.1-2.3-2.3,1.1-2.3,2.3-2.3,2.3,1.1,2.3,2.3ZM101.8,120.6c0,1-.8,1.9-1.9,1.9s-1.9-.8-1.9-1.9.8-1.9,1.9-1.9,1.9.8,1.9,1.9ZM82.1,112.1c0,1.3-1.1,2.3-2.3,2.3s-2.3-1.1-2.3-2.3,1.1-2.3,2.3-2.3c1.3,0,2.3,1.1,2.3,2.3ZM91,61.4c1.3,0,2.3,1.1,2.3,2.3s-1.1,2.3-2.3,2.3-2.3-1.1-2.3-2.3c0-1.3,1.1-2.3,2.3-2.3ZM61.1,80c3.3-10,10.9-18,20.7-21.9,1.1-.4,2.3,0,2.7,1.2.4,1.1,0,2.3-1.2,2.7-8.6,3.4-15.3,10.5-18.2,19.3-.4,1.1-1.6,1.7-2.7,1.3-1.1-.4-1.7-1.6-1.3-2.7ZM68.5,102.5c0,1.7-1.4,3.1-3.1,3.1s-3.1-1.4-3.1-3.1,1.4-3.1,3.1-3.1,3.1,1.4,3.1,3.1ZM98.4,139.3c-18.3,0-34-11.3-40.5-27.2,1.9,1.8,4.2,3.1,6.8,3.3,8.9.7,5.2,12.6,15.6,11.2,14.6-1.9,10,5.4,18.1,5.4s3.4-6.5,18.1-5.4c9.3.7,4.4-11.6,15.6-11.2,2.2,0,4.2-.9,6-2.3.5-.9,1-1.8,1.5-2.8-6,16.9-22.2,29-41.1,29Z"/>
  <g>
    <path class="cls-3" d="M73,46c.7-1.1,1.3-2.2,2-3.2,1.2.7,2.9.9,4.4.5,1.8-.5,2.8-1.6,2.8-2.8,0-1.3-1.1-1.5-2.6-1.7-.8-.1-1.6-.2-2.3-.3-1.8-.2-3.5-.9-3.5-3.5,0-2.9,2.4-6.2,6-7.2,2-.6,4.1-.3,5.6.9-.6.9-1.2,1.7-1.8,2.6-1.1-.7-2.3-.9-3.7-.5-1.5.5-2.5,1.5-2.5,2.7,0,1.3,1.2,1.3,2.7,1.5.8.1,1.5.2,2.3.4,2.2.4,3.6,1.5,3.6,4,0,2.9-2.5,5.8-6.5,7-2.3.7-4.7.6-6.3-.3Z"/>
    <path class="cls-3" d="M89,26.1c1.2-.2,2.4-.3,3.6-.4v17.8c-1.2.1-2.4.2-3.6.4v-17.8Z"/>
    <path class="cls-3" d="M100.7,28.5c-1.7,0-3.4,0-5.1,0v-3c4.6-.2,9.2.1,13.8.9v3c-1.7-.3-3.4-.5-5.1-.7,0,4.9,0,9.9,0,14.8-1.2-.1-2.4-.2-3.6-.2v-14.8Z"/>
    <path class="cls-3" d="M112.3,27c3.6.8,7.2,1.9,10.7,3.3v3c-2.4-1-4.8-1.8-7.2-2.5v4.1c2.1.6,4.1,1.3,6.1,2v3c-2-.8-4.1-1.5-6.1-2v4.8c2.5.7,5,1.6,7.4,2.6v3c-3.6-1.5-7.2-2.6-11-3.5,0-5.9,0-11.9,0-17.8Z"/>
  </g>
  <text/>
  <g>
    <path class="cls-1" d="M80.4,149.1c-1.6-.5-3.3-1.1-4.9-1.8v-3c4.3,1.8,8.9,3.1,13.4,3.9,0,1,0,2,0,3-1.7-.3-3.4-.6-5.1-1.1v14.8c-1.2-.3-2.4-.6-3.5-1v-14.8Z"/>
    <path class="cls-1" d="M91,157.3c0-5.8,3.3-8.6,8.1-8.6,4.8,0,8.1,2.9,8.1,8.7,0,5.7-3.3,9.8-8.1,9.8-4.8,0-8.1-4.1-8.1-9.9ZM103.5,157.8c0-3.8-1.7-6-4.4-6-2.7,0-4.4,2.1-4.4,5.9,0,3.8,1.7,6.4,4.4,6.4,2.7,0,4.4-2.6,4.4-6.3Z"/>
    <path class="cls-1" d="M110.7,148c2-.4,3.9-.8,5.8-1.4,3.9-1.1,6.8-1,6.8,3.2,0,4-2.9,7.1-6.7,8.2-.8.2-1.6.4-2.4.6v6.3c-1.2.3-2.4.5-3.6.8,0-5.9,0-11.9,0-17.8ZM116.4,155.4c2.4-.7,3.6-2.2,3.6-4.2,0-2.1-1.3-2.3-3.7-1.6-.7.2-1.3.4-2,.5v5.8c.7-.2,1.4-.4,2.1-.6Z"/>
  </g>
</svg>