<?xml version="1.0" encoding="UTF-8"?>
<svg id="_レイヤー_1" data-name="レイヤー 1" xmlns="http://www.w3.org/2000/svg" version="1.1" viewBox="0 0 200 200">
  <defs>
    <style>
      .cls-1 {
        fill: #7d5439;
        stroke-width: 0px;
      }
    </style>
  </defs>
  <path class="cls-1" d="M98.7,40.4c-27.6,0-50,22.4-50,50,0,27.6,22.4,50,50,50,27.6,0,50-22.4,50-50,0-27.6-22.4-50-50-50ZM132.2,81.2c1.3,0,2.3,1.1,2.3,2.3s-1.1,2.3-2.3,2.3-2.3-1.1-2.3-2.3c0-1.3,1.1-2.3,2.3-2.3ZM126.5,62.6c1.7,0,3.1,1.4,3.1,3.1s-1.4,3.1-3.1,3.1-3.1-1.4-3.1-3.1c0-1.7,1.4-3.1,3.1-3.1ZM108.2,53.9c1,0,1.9.8,1.9,1.9s-.8,1.9-1.9,1.9-1.9-.8-1.9-1.9.8-1.9,1.9-1.9ZM117.9,85.3c0,10-8.7,18-19.4,18s-19.4-8.1-19.4-18,8.7-18,19.4-18c10.7,0,19.4,8.1,19.4,18ZM118.5,110.3c0,1.3-1.1,2.3-2.3,2.3s-2.3-1.1-2.3-2.3,1.1-2.3,2.3-2.3,2.3,1.1,2.3,2.3ZM102.1,115.4c0,1-.8,1.9-1.9,1.9s-1.9-.8-1.9-1.9.8-1.9,1.9-1.9,1.9.8,1.9,1.9ZM82.4,107c0,1.3-1.1,2.3-2.3,2.3s-2.3-1.1-2.3-2.3,1.1-2.3,2.3-2.3c1.3,0,2.3,1.1,2.3,2.3ZM91.3,56.3c1.3,0,2.3,1.1,2.3,2.3s-1.1,2.3-2.3,2.3-2.3-1.1-2.3-2.3c0-1.3,1.1-2.3,2.3-2.3ZM61.4,74.9c3.3-10,10.9-18,20.7-21.9,1.1-.4,2.3,0,2.7,1.2.4,1.1,0,2.3-1.2,2.7-8.6,3.4-15.3,10.5-18.2,19.3-.4,1.1-1.6,1.7-2.7,1.3-1.1-.4-1.7-1.6-1.3-2.7ZM68.8,97.4c0,1.7-1.4,3.1-3.1,3.1s-3.1-1.4-3.1-3.1,1.4-3.1,3.1-3.1,3.1,1.4,3.1,3.1ZM98.7,134.1c-18.3,0-34-11.3-40.5-27.2,1.9,1.8,4.2,3.1,6.8,3.3,8.9.7,5.2,12.6,15.6,11.2,14.6-1.9,10,5.4,18.1,5.4s3.4-6.5,18.1-5.4c9.3.7,4.4-11.6,15.6-11.2,2.2,0,4.2-.9,6-2.3.5-.9,1-1.8,1.5-2.8-6,16.9-22.2,29-41.1,29Z"/>
  <text/>
  <g>
    <path class="cls-1" d="M46.2,123.7c-1.1-1.4-2.2-2.9-3.3-4.4.4-1.3.7-2.6,1.1-4,2.7,4.1,5.9,7.9,9.4,11.2-.3,1.3-.6,2.7-.8,4-1.3-1.2-2.6-2.5-3.9-3.9-1.6,6.6-3.1,13.2-4.7,19.8-1-1-1.9-1.9-2.8-3,1.7-6.6,3.3-13.2,5-19.8Z"/>
    <path class="cls-1" d="M52.6,139.7c1.6-7.8,5.1-9.9,9.2-7.2,4.2,2.7,6.7,8.7,5.7,16.4-1,7.7-5.2,11.1-9.9,8.3-4.8-2.8-6.7-9.9-5.1-17.6ZM64,147.2c.8-5.1-.4-9-2.8-10.6-2.4-1.5-4.4.4-5.4,5.5-1,5.1,0,9.5,2.6,11,2.6,1.5,4.8-.9,5.6-6Z"/>
    <path class="cls-1" d="M72.6,138.6c1.9.8,3.9,1.5,5.9,2.1,4,1.2,7.1,3.6,6.8,9.3-.3,5.5-3.9,7.4-8.1,6.2-.9-.2-1.7-.5-2.6-.8-.3,2.8-.6,5.7-.8,8.5-1.3-.4-2.7-.9-4-1.3.9-8,1.9-15.9,2.8-23.9ZM77.3,152.3c2.7.8,4.1-.4,4.3-3.1.2-2.8-1.1-4-3.7-4.8-.7-.2-1.4-.4-2.1-.7-.3,2.6-.5,5.2-.8,7.8.8.2,1.5.5,2.3.7Z"/>
    <path class="cls-1" d="M87.5,155.9c2.5.4,4.9.6,7.4.7,0,1.1,0,2.3,0,3.4-2.5-.1-5-.4-7.5-.7,0-1.1.1-2.3.2-3.4Z"/>
    <path class="cls-1" d="M98.7,143.7c2.1,0,4.2,0,6.3-.3,4.2-.4,7.5.8,7.9,6.5.4,5.5-2.9,8.6-7.3,9-.9,0-1.8.1-2.7.2,0,2.8,0,5.7.1,8.5-1.4,0-2.8.1-4.2.1,0-8,0-16,0-24ZM105.2,155.1c2.8-.2,4-1.8,3.9-4.6-.1-2.8-1.6-3.5-4.2-3.3-.7,0-1.5.1-2.2.2,0,2.6,0,5.2.1,7.9.8,0,1.6,0,2.4-.2Z"/>
    <path class="cls-1" d="M119.3,140.6c1.4-.4,2.8-.9,4.2-1.5,2.8,7.2,5.7,14.4,8.9,21.4-1.3.6-2.7,1.2-4,1.7-.7-1.9-1.4-3.7-2.1-5.6-2.1.8-4.2,1.4-6.3,2-.3,2.2-.6,4.3-.9,6.5-1.4.3-2.8.7-4.2.9,1.7-8.4,3.1-16.9,4.4-25.5ZM120.6,154.7c1.5-.4,3.1-.9,4.6-1.5-.3-.8-.6-1.6-.8-2.4-.9-2.3-1.6-4.8-2.4-7.3,0,0,0,0-.1,0-.2,2.8-.5,5.7-.8,8.3-.1.9-.2,1.9-.3,2.8Z"/>
    <path class="cls-1" d="M132,148.1c-1.1-7.9,1.9-14.3,5.9-17.2,2.2-1.6,3.9-1.4,5.2-.6-.3,1.4-.6,2.9-.9,4.3-1-.5-2-.7-3.4.3-2.6,1.8-4,6-3.2,11.2.8,5.2,3.1,7.4,6.5,5.2.8-.5,1.5-1.4,1.9-2.3-.3-1.6-.6-3.1-.9-4.7-.9.7-1.9,1.4-2.9,2-.2-1.3-.5-2.6-.7-3.9,1.9-1.3,3.8-2.7,5.6-4.2.7,3.6,1.5,7.2,2.2,10.7-.7,2.4-2.4,5.2-4.8,6.7-4.7,3-9.3.5-10.4-7.5Z"/>
    <path class="cls-1" d="M145.8,124.7c2.7-2.8,5.2-5.8,7.4-9.1.4,1.3.7,2.6,1.1,4-1.5,2.2-3.2,4.4-4.9,6.3.4,1.8.9,3.7,1.3,5.5,1.6-1.7,3-3.5,4.4-5.4.4,1.3.7,2.6,1.1,4-1.4,1.9-2.9,3.7-4.5,5.4.5,2.1,1,4.2,1.5,6.3,2-2.1,3.9-4.3,5.6-6.6.4,1.3.7,2.6,1.1,4-2.6,3.4-5.5,6.6-8.7,9.5-1.8-7.9-3.6-15.9-5.3-23.8Z"/>
  </g>
</svg>