<?xml version="1.0" encoding="utf-8"?>
<!-- Generator: Adobe Illustrator 28.3.0, SVG Export Plug-In . SVG Version: 6.00 Build 0)  -->
<svg version="1.1" id="_レイヤー_1" xmlns="http://www.w3.org/2000/svg" xmlns:xlink="http://www.w3.org/1999/xlink" x="0px"
	 y="0px" viewBox="0 0 200 200" style="enable-background:new 0 0 200 200;" xml:space="preserve">
<style type="text/css">
	.st0{fill:#7D5439;}
	.st1{fill:#7F5539;}
</style>
<path class="st0" d="M98.7,40.4c-27.6,0-50,22.4-50,50s22.4,50,50,50s50-22.4,50-50S126.3,40.4,98.7,40.4z M132.2,81.2
	c1.3,0,2.3,1.1,2.3,2.3s-1.1,2.3-2.3,2.3s-2.3-1.1-2.3-2.3C129.9,82.2,131,81.2,132.2,81.2z M126.5,62.6c1.7,0,3.1,1.4,3.1,3.1
	s-1.4,3.1-3.1,3.1s-3.1-1.4-3.1-3.1C123.4,64,124.8,62.6,126.5,62.6z M108.2,53.9c1,0,1.9,0.8,1.9,1.9s-0.8,1.9-1.9,1.9
	s-1.9-0.8-1.9-1.9S107.1,53.9,108.2,53.9z M117.9,85.3c0,10-8.7,18-19.4,18s-19.4-8.1-19.4-18s8.7-18,19.4-18S117.9,75.4,117.9,85.3
	z M118.5,110.3c0,1.3-1.1,2.3-2.3,2.3s-2.3-1.1-2.3-2.3s1.1-2.3,2.3-2.3S118.5,109.1,118.5,110.3z M102.1,115.4c0,1-0.8,1.9-1.9,1.9
	s-1.9-0.8-1.9-1.9s0.8-1.9,1.9-1.9S102.1,114.3,102.1,115.4z M82.4,107c0,1.3-1.1,2.3-2.3,2.3s-2.3-1.1-2.3-2.3s1.1-2.3,2.3-2.3
	C81.4,104.7,82.4,105.8,82.4,107z M91.3,56.3c1.3,0,2.3,1.1,2.3,2.3s-1.1,2.3-2.3,2.3S89,59.8,89,58.6C89,57.3,90.1,56.3,91.3,56.3z
	 M61.4,74.9c3.3-10,10.9-18,20.7-21.9c1.1-0.4,2.3,0,2.7,1.2c0.4,1.1,0,2.3-1.2,2.7C75,60.3,68.3,67.4,65.4,76.2
	c-0.4,1.1-1.6,1.7-2.7,1.3C61.6,77.1,61,75.9,61.4,74.9L61.4,74.9z M68.8,97.4c0,1.7-1.4,3.1-3.1,3.1s-3.1-1.4-3.1-3.1
	s1.4-3.1,3.1-3.1S68.8,95.7,68.8,97.4z M98.7,134.1c-18.3,0-34-11.3-40.5-27.2c1.9,1.8,4.2,3.1,6.8,3.3c8.9,0.7,5.2,12.6,15.6,11.2
	c14.6-1.9,10,5.4,18.1,5.4s3.4-6.5,18.1-5.4c9.3,0.7,4.4-11.6,15.6-11.2c2.2,0,4.2-0.9,6-2.3c0.5-0.9,1-1.8,1.5-2.8
	C133.9,122,117.7,134.1,98.7,134.1L98.7,134.1z"/>
<g>
	<g>
		<path class="st1" d="M42.7,120.6c1.6,1.6,3.2,3.1,4.9,4.6c3.4,2.9,5.8,6.5,4.7,11.6c-1.1,5-4.6,5.1-8.1,2.1
			c-0.7-0.6-1.5-1.3-2.2-1.9c-0.7,2.5-1.3,5-2,7.5c-1.1-1-2.2-2-3.3-3.1C38.7,134.4,40.7,127.5,42.7,120.6z M44.8,135.4
			c2.2,1.9,3.7,1.5,4.2-1c0.6-2.5-0.4-4.2-2.6-6.1c-0.6-0.5-1.2-1-1.8-1.6c-0.6,2.3-1.2,4.6-1.9,6.9
			C43.5,134.3,44.2,134.8,44.8,135.4z"/>
		<path class="st1" d="M60.1,134c1.3,0.8,2.7,1.5,4.1,2.2c0.6,8.4,1.4,16.8,2.5,25.2c-1.4-0.6-2.8-1.2-4.1-1.8
			c-0.1-2.1-0.3-4.3-0.4-6.4c-2-1-4.1-2.1-6-3.2c-0.8,1.6-1.6,3.3-2.4,4.9c-1.3-0.8-2.5-1.6-3.7-2.4C53.5,146.4,56.8,140.3,60.1,134
			z M57.5,146.9c1.4,0.8,2.9,1.6,4.4,2.3c0-0.9-0.1-1.8-0.1-2.7c-0.2-2.6-0.2-5.4-0.3-8.1c0,0-0.1,0-0.1-0.1
			c-0.9,2.2-1.9,4.4-2.8,6.4C58.2,145.5,57.9,146.2,57.5,146.9z"/>
		<path class="st1" d="M69.5,150.7c1.1-7.4,5.5-10.2,10.4-8.9c2.7,0.7,4.4,2.5,5.6,4.3c-0.7,0.8-1.5,1.7-2.2,2.5
			c-0.9-1.3-1.9-2.4-3.6-2.8c-3.1-0.8-5.6,1.4-6.2,6.2c-0.6,4.9,1,8.6,5,9.7c1,0.3,2,0.2,2.6-0.2c0.1-1.5,0.3-3,0.4-4.5
			c-1.2-0.3-2.3-0.6-3.5-0.9c0.1-1.2,0.2-2.5,0.4-3.7c2.3,0.6,4.6,1.2,7,1.6c-0.2,3.5-0.5,6.9-0.7,10.4c-1.5,1.3-4,2-6.9,1.2
			C72,164,68.4,158.2,69.5,150.7z"/>
		<path class="st1" d="M90,144.2c3.9,0.5,7.8,0.8,11.7,0.8c0,1.3,0,2.6,0,3.9c-2.7,0-5.4-0.1-8-0.4c-0.1,1.8-0.1,3.6-0.2,5.3
			c2.3,0.2,4.7,0.3,7,0.4c0,1.3,0,2.6,0,3.9c-2.4,0-4.7-0.1-7.1-0.4c-0.1,2.1-0.1,4.1-0.2,6.2c3,0.3,5.9,0.4,8.9,0.4
			c0,1.3,0,2.6,0,3.9c-4.4,0-8.8-0.3-13.2-0.9C89.2,159.6,89.6,151.9,90,144.2z"/>
		<path class="st1" d="M105,157.5c2.5-0.1,5-0.3,7.4-0.6c0,1.1,0.1,2.2,0.1,3.3c-2.5,0.3-5,0.5-7.5,0.6
			C105,159.7,105,158.6,105,157.5z"/>
		<path class="st1" d="M119.4,146.9c-1.8,0.4-3.6,0.7-5.4,1c-0.1-1.3-0.1-2.6-0.2-3.9c4.8-0.7,9.6-1.9,14.3-3.5
			c0.2,1.3,0.3,2.5,0.5,3.8c-1.8,0.6-3.5,1.1-5.3,1.6c0.6,6.4,1.2,12.7,1.8,19.1c-1.4,0.4-2.7,0.7-4.1,1
			C120.4,159.7,119.9,153.3,119.4,146.9z"/>
		<path class="st1" d="M131.6,151.2c-0.9-7.4,1.9-12.8,6.5-15.1c4.6-2.3,8.5-0.1,10,7c1.5,7.1-1,13.6-6.1,16.2
			C136.8,161.8,132.5,158.5,131.6,151.2z M144.5,145.2c-0.9-4.7-3.1-6.6-5.7-5.3c-2.6,1.3-4,4.9-3.3,9.7c0.7,4.8,3,7.1,5.8,5.7
			C144.2,154,145.3,149.9,144.5,145.2z"/>
		<path class="st1" d="M149.1,130c1.8-1.3,3.5-2.6,5.2-4c3.4-2.8,6.4-3.8,7.8,1.1c1.4,4.7-0.7,9.6-4.2,12.5
			c-0.7,0.6-1.5,1.2-2.2,1.8c0.6,2.5,1.2,5.1,1.8,7.6c-1.2,0.9-2.4,1.8-3.6,2.6C152.3,144.5,150.7,137.2,149.1,130z M156.8,136.5
			c2.3-1.9,3-4.1,2.3-6.5c-0.7-2.4-2-2.2-4.2-0.4c-0.6,0.5-1.2,1-1.8,1.5c0.6,2.3,1.1,4.7,1.7,7C155.5,137.6,156.2,137,156.8,136.5z
			"/>
	</g>
</g>
</svg>
