<svg width="40" height="40" viewBox="0 0 40 40" fill="none" xmlns="http://www.w3.org/2000/svg">
<path d="M39.6511 7.93806C39.5121 7.77166 39.3382 7.63783 39.1418 7.546C38.9453 7.45417 38.7311 7.4066 38.5142 7.40664H8.64348L7.73803 2.43308C7.61401 1.75044 7.25434 1.13297 6.72173 0.688339C6.18912 0.243703 5.51735 0.000100275 4.82354 0H1.48132C1.08845 0 0.711668 0.156068 0.433868 0.433871C0.156067 0.711673 0 1.08845 0 1.48133C0 1.8742 0.156067 2.25098 0.433868 2.52878C0.711668 2.80659 1.08845 2.96265 1.48132 2.96265H4.81428L9.54709 28.9396C9.6865 29.71 10.027 30.4299 10.534 31.0264C9.83418 31.6801 9.32906 32.5148 9.07465 33.438C8.82025 34.3612 8.82652 35.3369 9.09275 36.2568C9.35898 37.1766 9.87478 38.0048 10.5829 38.6494C11.2911 39.2941 12.164 39.73 13.1048 39.9088C14.0455 40.0876 15.0175 40.0024 15.9128 39.6626C16.8081 39.3228 17.5918 38.7416 18.1769 37.9836C18.7621 37.2255 19.1259 36.3203 19.228 35.3681C19.3301 34.4159 19.1665 33.4541 18.7553 32.5892H27.1655C26.8341 33.283 26.6626 34.0423 26.6637 34.8112C26.6637 35.8366 26.9678 36.839 27.5375 37.6916C28.1072 38.5442 28.9169 39.2088 29.8643 39.6012C30.8116 39.9936 31.8541 40.0963 32.8598 39.8962C33.8655 39.6962 34.7893 39.2024 35.5144 38.4773C36.2395 37.7522 36.7333 36.8284 36.9333 35.8227C37.1334 34.8169 37.0307 33.7745 36.6383 32.8271C36.2459 31.8797 35.5813 31.07 34.7287 30.5003C33.8761 29.9306 32.8737 29.6265 31.8483 29.6265H13.9188C13.5719 29.6265 13.236 29.5047 12.9697 29.2824C12.7034 29.0601 12.5236 28.7513 12.4616 28.41L11.8746 25.1826H33.3537C34.3944 25.1824 35.4021 24.817 36.201 24.1501C36.9999 23.4831 37.5394 22.5569 37.7254 21.5329L39.977 9.15275C40.0152 8.93877 40.0057 8.71903 39.9494 8.5091C39.8931 8.29918 39.7913 8.10422 39.6511 7.93806ZM16.2945 34.8112C16.2945 35.2507 16.1642 35.6803 15.92 36.0457C15.6759 36.4111 15.3288 36.6959 14.9228 36.864C14.5168 37.0322 14.07 37.0762 13.639 36.9905C13.208 36.9047 12.8121 36.6931 12.5013 36.3824C12.1906 36.0716 11.979 35.6757 11.8932 35.2447C11.8075 34.8137 11.8515 34.3669 12.0197 33.9609C12.1878 33.5549 12.4726 33.2078 12.838 32.9637C13.2035 32.7195 13.633 32.5892 14.0725 32.5892C14.6618 32.5892 15.227 32.8233 15.6437 33.24C16.0604 33.6567 16.2945 34.2219 16.2945 34.8112ZM34.0703 34.8112C34.0703 35.2507 33.94 35.6803 33.6958 36.0457C33.4517 36.4111 33.1046 36.6959 32.6986 36.864C32.2926 37.0322 31.8458 37.0762 31.4148 36.9905C30.9838 36.9047 30.5879 36.6931 30.2771 36.3824C29.9664 36.0716 29.7548 35.6757 29.669 35.2447C29.5833 34.8137 29.6273 34.3669 29.7955 33.9609C29.9637 33.5549 30.2484 33.2078 30.6139 32.9637C30.9793 32.7195 31.4088 32.5892 31.8483 32.5892C32.4376 32.5892 33.0028 32.8233 33.4195 33.24C33.8362 33.6567 34.0703 34.2219 34.0703 34.8112ZM34.8109 21.0034C34.7488 21.3456 34.5681 21.6551 34.3007 21.8775C34.0332 22.1 33.696 22.2212 33.3481 22.2199H11.3358L9.18231 10.3693H36.7385L34.8109 21.0034Z" fill="#7F5539"/>
</svg>
